<svg width="16" height="9" viewBox="0 0 16 9" fill="none" xmlns="http://www.w3.org/2000/svg">
<path d="M0.895729 1.24988C0.895848 1.114 0.936234 0.981194 1.01179 0.868246C1.08734 0.755298 1.19466 0.667273 1.32021 0.615287C1.44576 0.563302 1.5839 0.549688 1.71719 0.576166C1.85047 0.602643 1.97292 0.668024 2.06906 0.764051L7.9999 6.69397L13.9307 0.764051C14.0611 0.642611 14.2334 0.576497 14.4115 0.57964C14.5897 0.582782 14.7596 0.654936 14.8856 0.780898C15.0115 0.90686 15.0837 1.0768 15.0868 1.25491C15.0899 1.43301 15.0238 1.60539 14.9024 1.73572L8.48573 8.15238C8.42196 8.21624 8.34623 8.2669 8.26287 8.30147C8.1795 8.33603 8.09014 8.35383 7.9999 8.35383C7.90965 8.35383 7.82029 8.33603 7.73693 8.30147C7.65356 8.2669 7.57783 8.21624 7.51406 8.15238L1.09739 1.73572C1.03329 1.67212 0.982455 1.59643 0.947836 1.51303C0.913218 1.42963 0.895507 1.34018 0.895729 1.24988Z" fill="black"/>
</svg>
