<svg width="48" height="29" viewBox="0 0 48 29" fill="none" xmlns="http://www.w3.org/2000/svg">
<g clip-path="url(#clip0_1_1245)">
<path d="M4.45679 0H43.524C45.9965 0 47.9979 2.02337 47.9979 4.52305V19.5995C47.9979 22.0991 45.9965 24.1225 43.524 24.1225H29.514L31.437 28.8834L22.9799 24.1225H4.47629C2.00396 24.1225 0.00258541 22.0991 0.00258541 19.5995V4.52305C-0.0171002 2.04327 1.98409 0 4.45679 0Z" fill="#9B5C8F"/>
<path d="M2.7352 4.12247C3.00836 3.74755 3.41801 3.55043 3.96433 3.511C4.95949 3.43196 5.52531 3.90525 5.6618 4.93105C6.26661 9.0536 6.92993 12.545 7.63224 15.405L11.905 7.17979C12.2953 6.43015 12.7831 6.03571 13.3684 5.99628C14.2269 5.93715 14.7536 6.48928 14.9682 7.65307C15.4561 10.2763 16.0804 12.5054 16.8217 14.3989C17.329 9.3889 18.1875 5.77926 19.3971 3.55043C19.6896 2.9981 20.1189 2.72194 20.6848 2.68232C21.1336 2.64309 21.5432 2.78107 21.9139 3.07695C22.2845 3.37283 22.4797 3.74755 22.5187 4.20132C22.5382 4.55633 22.4797 4.8522 22.3237 5.14808C21.5627 6.56832 20.9382 8.95504 20.4311 12.2686C19.9434 15.4838 19.7678 17.989 19.8848 19.784C19.924 20.2768 19.8458 20.7108 19.6508 21.0858C19.4164 21.5196 19.0655 21.7564 18.6166 21.7958C18.1093 21.8352 17.5827 21.5987 17.0753 21.066C15.2609 19.192 13.8171 16.3912 12.7636 12.6632C11.4953 15.188 10.5588 17.0815 9.95402 18.3438C8.80287 20.5729 7.8274 21.7169 7.00792 21.7761C6.48109 21.8155 6.03245 21.3617 5.6423 20.4152C4.64733 17.8311 3.57418 12.8407 2.42323 5.44396C2.34504 4.93105 2.46203 4.47729 2.7352 4.12247ZM44.663 7.21921C43.9607 5.97657 42.9265 5.22712 41.5414 4.93105C41.1706 4.8522 40.8196 4.81278 40.4878 4.81278C38.6148 4.81278 37.093 5.79897 35.9029 7.77154C34.8882 9.44804 34.3811 11.3021 34.3811 13.3339C34.3811 14.8527 34.6932 16.1544 35.3176 17.2394C36.0199 18.482 37.054 19.2315 38.4391 19.5273C38.8098 19.6064 39.1609 19.6458 39.4928 19.6458C41.3852 19.6458 42.907 18.6596 44.0777 16.687C45.0921 14.9906 45.5995 13.1365 45.5995 11.105C45.619 9.5665 45.2873 8.28425 44.663 7.21921ZM42.2047 12.683C41.9316 13.9847 41.4437 14.9512 40.7217 15.6021C40.1561 16.115 39.6293 16.3318 39.1416 16.2333C38.6733 16.1347 38.283 15.7206 37.9905 14.9512C37.7561 14.3398 37.6393 13.7283 37.6393 13.1562C37.6393 12.6632 37.6783 12.1701 37.7758 11.7165C37.9515 10.9077 38.2832 10.1186 38.8098 9.36919C39.4538 8.40252 40.1366 8.00828 40.8389 8.14626C41.3073 8.24482 41.6976 8.65916 41.9901 9.42833C42.2242 10.0398 42.3412 10.6513 42.3412 11.2233C42.3412 11.7362 42.3022 12.2294 42.2047 12.683ZM32.4495 7.21921C31.7472 5.97657 30.6935 5.22712 29.3279 4.93105C28.9572 4.8522 28.6061 4.81278 28.2742 4.81278C26.4013 4.81278 24.8795 5.79897 23.6893 7.77154C22.6749 9.44804 22.1676 11.3021 22.1676 13.3339C22.1676 14.8527 22.4797 16.1544 23.104 17.2394C23.8063 18.482 24.8405 19.2315 26.2256 19.5273C26.5964 19.6064 26.9474 19.6458 27.2793 19.6458C29.1717 19.6458 30.6935 18.6596 31.8641 16.687C32.8788 14.9906 33.3859 13.1365 33.3859 11.105C33.3859 9.5665 33.0738 8.28425 32.4495 7.21921ZM29.9717 12.683C29.6985 13.9847 29.2107 14.9512 28.4889 15.6021C27.9231 16.115 27.3962 16.3318 26.9084 16.2333C26.4403 16.1347 26.0501 15.7206 25.7573 14.9512C25.5233 14.3398 25.4063 13.7283 25.4063 13.1562C25.4063 12.6632 25.4453 12.1701 25.5428 11.7165C25.7185 10.9077 26.0501 10.1186 26.577 9.36919C27.2208 8.40252 27.9036 8.00828 28.6059 8.14626C29.0742 8.24482 29.4646 8.65916 29.757 9.42833C29.9914 10.0398 30.1082 10.6513 30.1082 11.2233C30.1279 11.7362 30.0692 12.2294 29.9717 12.683Z" fill="white"/>
</g>
<defs>
<clipPath id="clip0_1_1245">
<rect width="48" height="29" fill="white"/>
</clipPath>
</defs>
</svg>
